<?xml version="1.0" encoding="utf-8"?>
<!-- Generator: Adobe Illustrator 16.0.0, SVG Export Plug-In . SVG Version: 6.00 Build 0)  -->
<!DOCTYPE svg PUBLIC "-//W3C//DTD SVG 1.1//EN" "http://www.w3.org/Graphics/SVG/1.1/DTD/svg11.dtd">
<svg version="1.1" id="Layer_1" xmlns="http://www.w3.org/2000/svg" xmlns:xlink="http://www.w3.org/1999/xlink" x="0px" y="0px"
	 width="40px" height="1019.839px" viewBox="-2.5 0.083 40 1019.839" enable-background="new -2.5 0.083 40 1019.839"
	 xml:space="preserve">
<g id="Layer_1_1_">
	<path opacity="0.1" fill="#FFFFFF" enable-background="new    " d="M13.655,41.097c0.004,0.158,0.009,0.314,0.009,0.475
		c0.001,4.882-3.708,10.511-10.505,10.511c-2.088,0-4.027-0.615-5.659-1.658c0.288,0.035,0.58,0.053,0.883,0.053
		c1.728,0,3.319-0.594,4.583-1.582c-1.616-0.029-2.983-1.1-3.453-2.564c0.223,0.039,0.458,0.064,0.698,0.064
		c0.33,0,0.66-0.045,0.963-0.127c-1.688-0.342-2.951-1.836-2.951-3.625c0-0.018,0-0.033,0-0.047c0.49,0.273,1.062,0.441,1.675,0.465
		c-1-0.666-1.646-1.793-1.646-3.072c0-0.682,0.185-1.314,0.5-1.861c1.819,2.238,4.542,3.707,7.615,3.861
		c-0.069-0.27-0.099-0.551-0.099-0.842c0-2.037,1.654-3.693,3.692-3.693c1.058,0,2.021,0.447,2.697,1.164
		c0.839-0.166,1.63-0.471,2.341-0.895c-0.274,0.857-0.857,1.584-1.624,2.043c0.746-0.086,1.466-0.287,2.125-0.584
		C15.002,39.927,14.376,40.577,13.655,41.097z"/>
	<path opacity="0.1" fill="#FFFFFF" enable-background="new    " d="M1.58,90.358v0.002c-0.434,0.434-1.03,0.697-1.695,0.697
		c-0.655,0-1.253-0.264-1.686-0.699C-2.23,89.925-2.5,89.337-2.5,88.677c0-0.656,0.27-1.248,0.7-1.682
		c0.433-0.434,1.03-0.699,1.686-0.699c0.665,0,1.261,0.266,1.695,0.699c0.436,0.434,0.698,1.025,0.703,1.682
		C2.278,89.337,2.016,89.925,1.58,90.358z M5.927,91.083v-0.008C5.918,88.821,5.043,86.7,3.452,85.11
		c-1.587-1.59-3.712-2.471-5.951-2.471v-3.436c3.275,0,6.238,1.334,8.389,3.484c2.147,2.154,3.479,5.121,3.479,8.395L5.927,91.083
		L5.927,91.083z M12.05,91.083c-0.006-8.029-6.527-14.559-14.543-14.566v-3.434c4.957,0.006,9.455,2.02,12.708,5.277
		c3.267,3.264,5.277,7.758,5.281,12.723H12.05z"/>
	<path id="Facebook__x28_alt_x29__13_" opacity="0.1" fill="#FFFFFF" enable-background="new    " d="M0.38,18.083V9.812H-2.5V6.163
		h2.88V4.741c0-2.451,1.84-4.658,4.104-4.658h3.095v3.646h-2.9c-0.323,0-0.699,0.393-0.699,0.98v1.454h3.6v3.648h-3.6v8.272H0.38z"
		/>
	<path fill="#00324C" d="M13.655,40.097c0.004,0.158,0.009,0.314,0.009,0.475c0.001,4.882-3.708,10.511-10.505,10.511
		c-2.088,0-4.027-0.615-5.659-1.658c0.288,0.035,0.58,0.053,0.883,0.053c1.728,0,3.319-0.594,4.583-1.582
		c-1.616-0.029-2.983-1.1-3.453-2.564c0.223,0.039,0.458,0.064,0.698,0.064c0.33,0,0.66-0.045,0.963-0.127
		c-1.688-0.342-2.951-1.836-2.951-3.625c0-0.018,0-0.033,0-0.047c0.49,0.273,1.062,0.441,1.675,0.465
		c-1-0.666-1.646-1.793-1.646-3.072c0-0.682,0.185-1.314,0.5-1.861c1.819,2.238,4.542,3.707,7.615,3.861
		c-0.069-0.27-0.099-0.551-0.099-0.842c0-2.037,1.654-3.693,3.692-3.693c1.058,0,2.021,0.447,2.697,1.164
		c0.839-0.166,1.63-0.471,2.341-0.895c-0.274,0.857-0.857,1.584-1.624,2.043c0.746-0.086,1.466-0.287,2.125-0.584
		C15.002,38.927,14.376,39.577,13.655,40.097z"/>
	<path fill="#00324C" d="M1.58,89.358v0.002c-0.434,0.434-1.03,0.697-1.695,0.697c-0.655,0-1.253-0.264-1.686-0.699
		C-2.23,88.925-2.5,88.337-2.5,87.677c0-0.656,0.27-1.248,0.7-1.682c0.433-0.434,1.03-0.699,1.686-0.699
		c0.665,0,1.261,0.266,1.695,0.699c0.436,0.434,0.698,1.025,0.703,1.682C2.278,88.337,2.016,88.925,1.58,89.358z M5.927,90.083
		v-0.008C5.918,87.821,5.043,85.7,3.452,84.11c-1.587-1.59-3.712-2.471-5.951-2.471v-3.436c3.275,0,6.238,1.334,8.389,3.484
		c2.147,2.154,3.479,5.121,3.479,8.395L5.927,90.083L5.927,90.083z M12.05,90.083c-0.006-8.029-6.527-14.559-14.543-14.566v-3.434
		c4.957,0.006,9.455,2.02,12.708,5.277c3.267,3.264,5.277,7.758,5.281,12.723H12.05z"/>
	<path id="Facebook__x28_alt_x29__1_" fill="#00324C" d="M0.38,18.083V9.812H-2.5V6.163h2.88V4.741c0-2.451,1.84-4.658,4.104-4.658
		h3.095v3.646h-2.9c-0.323,0-0.699,0.393-0.699,0.98v1.454h3.6v3.648h-3.6v8.272H0.38z"/>
</g>
<g id="guides" display="none">
</g>
<g>
	<path opacity="0.1" fill="#FFFFFF" enable-background="new    " d="M10.5,281.587v10.464c0,0.335-0.628,0.671-1,0.671
		s-1-0.187-1-0.671c0,0,0-9.282,0-9.468s0-0.225-0.224-0.335c-0.224-0.112-7.123-4.022-7.123-4.022
		c-0.112-0.037-0.596-0.186-1.267,0.188c-0.633,0.297-0.715,0.547-0.789,0.694l7.068,4.117c0.224,0.112,0.335,0.337,0.335,0.522
		v10.24c0,0.224-0.111,0.447-0.334,0.521c-0.112,0.075-0.225,0.075-0.299,0.075c-0.148,0-0.26,0-0.372-0.074
		c-0.187-0.148-7.026-4.543-7.511-4.804c-0.223-0.149-0.484-0.409-0.484-0.633v-9.757c0-0.188,0-0.521,0.26-0.969
		c0.671-1.043,2.909-2.197,4.026-1.603l8.379,4.317C10.389,281.177,10.5,281.364,10.5,281.587z"/>
	<path opacity="0.1" fill="#FFFFFF" enable-background="new    " d="M3.5,156.083c-3.314,0-6,2.687-6,6c0,6.751,6,12,6,12
		s6-5.249,6-12C9.5,158.77,6.814,156.083,3.5,156.083z M3.5,165.458c-1.864,0-3.375-1.511-3.375-3.375
		c0-1.863,1.511-3.375,3.375-3.375s3.375,1.512,3.375,3.375C6.875,163.947,5.364,165.458,3.5,165.458z"/>
	<path opacity="0.1" fill="#FFFFFF" enable-background="new    " d="M13.5,318.601h-14c-1.104,0-2,0.896-2,2v10c0,1.104,0.896,2,2,2
		h14c1.104,0,2-0.896,2-2v-10C15.5,319.495,14.604,318.601,13.5,318.601z M1.001,320.101c0.829,0,1.499,0.672,1.499,1.5
		s-0.67,1.5-1.499,1.5s-1.501-0.672-1.501-1.5C-0.5,320.771,0.172,320.101,1.001,320.101z M13.5,330.601h-14v-6h14V330.601z
		 M13.5,322.601h-10v-2h10V322.601z"/>
	<g opacity="0.1">
		<path fill="#FFFFFF" d="M0.357,245.161c-0.744,1.408-1.291,2.936-1.566,4.541c-0.821-1.331-1.291-2.935-1.291-4.619
			c0-1.445,0.354-2.816,0.979-4.031c0.469,0.783,1.018,1.526,1.643,2.192c-0.077,0.233-0.156,0.471-0.156,0.741
			C-0.035,244.418,0.121,244.849,0.357,245.161z M1.062,242.267c-0.704-0.742-1.292-1.604-1.8-2.506
			c0.665-0.898,1.524-1.721,2.504-2.309c1.057,0.43,2.074,0.938,2.974,1.604c-0.078,0.196-0.116,0.395-0.116,0.627
			c0,0.156,0.038,0.275,0.077,0.434c-0.822,0.625-1.565,1.291-2.271,2.033c-0.155-0.039-0.352-0.08-0.547-0.08
			C1.57,242.069,1.295,242.147,1.062,242.267z M3.018,253.38c-1.174-0.47-2.231-1.214-3.091-2.15c0.155-1.918,0.704-3.72,1.564-5.36
			c0.118,0.037,0.274,0.037,0.392,0.037c0.352,0,0.704-0.078,1.018-0.271c1.761,1.213,3.834,2.072,6.064,2.426
			C6.5,249.312,4.465,251.149,3.018,253.38z M5.561,238.04c-0.703-0.508-1.447-0.98-2.23-1.37c0.978-0.353,2.073-0.587,3.169-0.587
			c1.645,0,3.17,0.468,4.5,1.212c-1.096,0.196-2.152,0.55-3.169,0.979c-0.313-0.314-0.783-0.51-1.292-0.51
			C6.188,237.767,5.874,237.845,5.561,238.04z M3.722,244.574c0.039-0.194,0.078-0.392,0.078-0.589c0-0.351-0.117-0.702-0.273-1.017
			c0.548-0.625,1.213-1.214,1.917-1.761c0.312,0.232,0.666,0.393,1.096,0.393c0.274,0,0.509-0.078,0.744-0.156
			c1.174,1.369,2.072,2.936,2.621,4.695c-0.195,0.156-0.392,0.393-0.509,0.625C7.322,246.453,5.404,245.71,3.722,244.574z
			 M10.53,249.427c0.04,0.354,0.04,0.665,0.04,1.02c0,0.978-0.078,1.916-0.274,2.816c-1.135,0.549-2.427,0.82-3.796,0.82
			c-0.744,0-1.487-0.077-2.191-0.234c1.408-2.033,3.326-3.678,5.596-4.771C10.1,249.231,10.335,249.349,10.53,249.427z
			 M15.5,245.083c0,0.432-0.039,0.861-0.078,1.292c-0.822,0.233-1.644,0.392-2.543,0.47c-0.274-0.664-0.939-1.135-1.723-1.174
			c-0.626-1.918-1.604-3.639-2.896-5.166c0.118-0.234,0.196-0.547,0.196-0.822c0-0.076,0-0.156,0-0.195
			c1.291-0.547,2.66-0.898,4.108-1.057C14.365,240.075,15.5,242.462,15.5,245.083z M12.957,248.175
			c0.703-0.039,1.447-0.156,2.113-0.354c-0.588,1.84-1.723,3.445-3.248,4.541c0.078-0.627,0.117-1.252,0.117-1.918
			c0-0.354-0.039-0.742-0.039-1.096C12.409,249.151,12.761,248.724,12.957,248.175z"/>
	</g>
	<g opacity="0.1">
		<path fill="#FFFFFF" d="M-2.5,203.083v6c0,1.656,1.344,3,3,3v-12C-1.156,200.083-2.5,201.427-2.5,203.083z"/>
		<path fill="#FFFFFF" d="M12.5,200.083v12c1.656,0,3-1.344,3-3v-6C15.5,201.427,14.156,200.083,12.5,200.083z"/>
		<path fill="#FFFFFF" d="M10.5,199.083c-0.639-1.725-2.343-3-4-3s-3.361,1.275-4,3v1h-1v12h10v-12h-1V199.083z M4.5,200.083v-1
			c0.602-0.74,1.094-1.2,2-1.2s1.398,0.46,2,1.2v1H4.5z"/>
	</g>
	<path opacity="0.1" fill="#FFFFFF" enable-background="new    " d="M12.5,118.083h-12c-1.656,0-3,1.344-3,3v6c0,1.656,1.344,3,3,3
		h5.75l5.25,4v-4h1c1.656,0,3-1.344,3-3v-6C15.5,119.427,14.156,118.083,12.5,118.083z"/>
	<path fill="#00324C" d="M10.5,280.587v10.464c0,0.335-0.628,0.671-1,0.671s-1-0.187-1-0.671c0,0,0-9.282,0-9.468
		s0-0.225-0.224-0.335c-0.224-0.112-7.123-4.022-7.123-4.022c-0.112-0.037-0.596-0.186-1.267,0.188
		c-0.633,0.297-0.715,0.547-0.789,0.694l7.068,4.117c0.224,0.112,0.335,0.337,0.335,0.522v10.24c0,0.224-0.111,0.447-0.334,0.521
		c-0.112,0.075-0.225,0.075-0.299,0.075c-0.148,0-0.26,0-0.372-0.074c-0.187-0.148-7.026-4.543-7.511-4.804
		c-0.223-0.149-0.484-0.409-0.484-0.633v-9.757c0-0.188,0-0.521,0.26-0.969c0.671-1.043,2.909-2.197,4.026-1.603l8.379,4.317
		C10.389,280.177,10.5,280.364,10.5,280.587z"/>
	<path fill="#00324C" d="M3.5,155.083c-3.314,0-6,2.687-6,6c0,6.751,6,12,6,12s6-5.249,6-12C9.5,157.77,6.814,155.083,3.5,155.083z
		 M3.5,164.458c-1.864,0-3.375-1.511-3.375-3.375c0-1.863,1.511-3.375,3.375-3.375s3.375,1.512,3.375,3.375
		C6.875,162.947,5.364,164.458,3.5,164.458z"/>
	<path fill="#00324C" d="M13.5,317.601h-14c-1.104,0-2,0.896-2,2v10c0,1.104,0.896,2,2,2h14c1.104,0,2-0.896,2-2v-10
		C15.5,318.495,14.604,317.601,13.5,317.601z M1.001,319.101c0.829,0,1.499,0.672,1.499,1.5s-0.67,1.5-1.499,1.5
		s-1.501-0.672-1.501-1.5C-0.5,319.771,0.172,319.101,1.001,319.101z M13.5,329.601h-14v-6h14V329.601z M13.5,321.601h-10v-2h10
		V321.601z"/>
	<path fill="#00324C" d="M12.5,117.083h-12c-1.656,0-3,1.344-3,3v6c0,1.656,1.344,3,3,3h5.75l5.25,4v-4h1c1.656,0,3-1.344,3-3v-6
		C15.5,118.427,14.156,117.083,12.5,117.083z"/>
	<g>
		<path fill="#00324C" d="M0.357,244.161c-0.744,1.408-1.291,2.936-1.566,4.541c-0.821-1.331-1.291-2.935-1.291-4.619
			c0-1.445,0.354-2.816,0.979-4.031c0.469,0.783,1.018,1.526,1.643,2.192c-0.077,0.233-0.156,0.471-0.156,0.741
			C-0.035,243.418,0.121,243.849,0.357,244.161z M1.062,241.267c-0.704-0.742-1.292-1.604-1.8-2.506
			c0.665-0.898,1.524-1.721,2.504-2.309c1.057,0.43,2.074,0.938,2.974,1.604c-0.078,0.196-0.116,0.395-0.116,0.627
			c0,0.156,0.038,0.275,0.077,0.434c-0.822,0.625-1.565,1.291-2.271,2.033c-0.155-0.039-0.352-0.08-0.547-0.08
			C1.57,241.069,1.295,241.147,1.062,241.267z M3.018,252.38c-1.174-0.47-2.231-1.214-3.091-2.15c0.155-1.918,0.704-3.72,1.564-5.36
			c0.118,0.037,0.274,0.037,0.392,0.037c0.352,0,0.704-0.078,1.018-0.271c1.761,1.213,3.834,2.072,6.064,2.426
			C6.5,248.312,4.465,250.149,3.018,252.38z M5.561,237.04c-0.703-0.508-1.447-0.98-2.23-1.37c0.978-0.353,2.073-0.587,3.169-0.587
			c1.645,0,3.17,0.468,4.5,1.212c-1.096,0.196-2.152,0.55-3.169,0.979c-0.313-0.314-0.783-0.51-1.292-0.51
			C6.188,236.767,5.874,236.845,5.561,237.04z M3.722,243.574c0.039-0.194,0.078-0.392,0.078-0.589c0-0.351-0.117-0.702-0.273-1.017
			c0.548-0.625,1.213-1.214,1.917-1.761c0.312,0.232,0.666,0.393,1.096,0.393c0.274,0,0.509-0.078,0.744-0.156
			c1.174,1.369,2.072,2.936,2.621,4.695c-0.195,0.156-0.392,0.393-0.509,0.625C7.322,245.453,5.404,244.71,3.722,243.574z
			 M10.53,248.427c0.04,0.354,0.04,0.665,0.04,1.02c0,0.978-0.078,1.916-0.274,2.816c-1.135,0.549-2.427,0.82-3.796,0.82
			c-0.744,0-1.487-0.077-2.191-0.234c1.408-2.033,3.326-3.678,5.596-4.771C10.1,248.231,10.335,248.349,10.53,248.427z
			 M15.5,244.083c0,0.432-0.039,0.861-0.078,1.292c-0.822,0.233-1.644,0.392-2.543,0.47c-0.274-0.664-0.939-1.135-1.723-1.174
			c-0.626-1.918-1.604-3.639-2.896-5.166c0.118-0.234,0.196-0.547,0.196-0.822c0-0.076,0-0.156,0-0.195
			c1.291-0.547,2.66-0.898,4.108-1.057C14.365,239.075,15.5,241.462,15.5,244.083z M12.957,247.175
			c0.703-0.039,1.447-0.156,2.113-0.354c-0.588,1.84-1.723,3.445-3.248,4.541c0.078-0.627,0.117-1.252,0.117-1.918
			c0-0.354-0.039-0.742-0.039-1.096C12.409,248.151,12.761,247.724,12.957,247.175z"/>
	</g>
	<g>
		<path fill="#00324C" d="M-2.5,202.083v6c0,1.656,1.344,3,3,3v-12C-1.156,199.083-2.5,200.427-2.5,202.083z"/>
		<path fill="#00324C" d="M12.5,199.083v12c1.656,0,3-1.344,3-3v-6C15.5,200.427,14.156,199.083,12.5,199.083z"/>
		<path fill="#00324C" d="M10.5,198.083c-0.639-1.725-2.343-3-4-3s-3.361,1.275-4,3v1h-1v12h10v-12h-1V198.083z M4.5,199.083v-1
			c0.602-0.74,1.094-1.2,2-1.2s1.398,0.46,2,1.2v1H4.5z"/>
	</g>
</g>
<g>
	<g>
		<g>
			<path fill="#FFFFFF" d="M13.32,374.851l-0.758,0.762c-0.329,0.297-0.823,0.297-1.12,0l-3.132-3.13
				c-0.758,0.43-1.646,0.689-2.57,0.689c-2.802,0-5.24-2.438-5.24-5.234c0-2.832,2.273-5.104,5.075-5.104
				c2.835,0,5.273,2.438,5.273,5.235c0,0.986-0.263,1.875-0.758,2.666l3.132,3.097C13.519,374.161,13.617,374.524,13.32,374.851z
				 M5.74,371.626c1.944,0,3.527-1.582,3.527-3.557c0-1.943-1.747-3.656-3.692-3.656c-1.944,0-3.526,1.58-3.526,3.521
				C2.049,369.879,3.796,371.626,5.74,371.626z"/>
		</g>
	</g>
</g>
<path fill="#FFFFFF" d="M15.5,415.033v14.532c0,0.466-0.869,0.933-1.385,0.933c-0.516,0-1.615-0.259-1.615-0.933
	c0,0,0-12.894,0-13.149s0-0.311-0.309-0.465c-0.311-0.156-9.633-5.587-9.633-5.587c-0.156-0.053-0.951-0.23-1.787,0.428
	c-0.709,0.557-0.957,1.085-1.059,1.291l9.324,5.226c0.309,0.155,0.463,0.468,0.463,0.727v14.223c0,0.312-0.154,0.621-0.463,0.726
	c-0.153,0.1-0.309,0.1-0.411,0.1c-0.207,0-0.361,0-0.516-0.104c-0.258-0.206-9.268-6.312-9.938-6.674
	c-0.31-0.205-0.671-0.566-0.671-0.877v-13.551c0-0.258,0-0.725,0.359-1.346c0.93-1.447,4.029-3.052,5.576-2.225l11.602,5.999
	C15.346,414.463,15.5,414.724,15.5,415.033z"/>
<polygon fill="#FFFFFF" points="13.5,476.323 13.5,467.083 3.5,467.083 3.5,476.323 -2.5,476.323 8.5,488.083 19.5,476.323 "/>
<path fill="#EDEDED" d="M21.363,536.278c-0.49-0.597-1.934-1.886-4.933-2.949c-2.95-1.113-3.914-2.031-3.914-3.963
	c0-1.211,0.914-0.82,1.304-2.953c0.143-0.916,0.965-0.045,1.112-2.08c0-0.82-0.438-1.012-0.438-1.012s0.246-1.211,0.291-2.129
	c0.148-1.16-0.625-4.109-4.785-4.109c-4.159,0-4.933,2.949-4.785,4.109c0.045,0.918,0.289,2.129,0.289,2.129
	s-0.437,0.19-0.437,1.012c0.147,2.035,0.97,1.164,1.112,2.08c0.389,2.133,1.303,1.742,1.303,2.953c0,1.932-0.963,2.85-3.913,3.963
	c-3,1.064-4.442,2.354-4.933,2.949c-0.566,0.689-1.136,5.805-1.136,5.805h25C22.5,542.083,21.93,536.968,21.363,536.278z"/>
<path fill="#D15F22" d="M19.5,591.083h-19c-1.656,0-3,1.344-3,3v12c0,1.656,1.344,3,3,3h9l7,5v-5h3c1.656,0,3-1.344,3-3v-12
	C22.5,592.427,21.156,591.083,19.5,591.083z"/>
<path fill="#E8931B" d="M9.5,659.927c-4.418,0-8,3.582-8,8c0,9,8,17,8,17s8-8,8-17C17.5,663.509,13.918,659.927,9.5,659.927z
	 M9.5,672.427c-2.485,0-4.5-2.016-4.5-4.5c0-2.485,2.015-4.5,4.5-4.5s4.5,2.015,4.5,4.5C14,670.411,11.985,672.427,9.5,672.427z"/>
<g>
	<path fill="#004873" d="M14.5,731.083c-0.719-1.725-2.636-3-4.5-3s-3.781,1.275-4.5,3v2h-2v18h13v-18h-2V731.083z M7.5,733.083v-2
		c0.676-0.74,1.48-1.199,2.5-1.199s1.824,0.459,2.5,1.199v2H7.5z"/>
	<path fill="#004873" d="M-2.5,736.083v12c0,1.656,1.344,3,3,3h1v-18h-1C-1.156,733.083-2.5,734.427-2.5,736.083z"/>
	<path fill="#004873" d="M19.5,733.083h-1v18h1c1.656,0,3-1.344,3-3v-12C22.5,734.427,21.156,733.083,19.5,733.083z"/>
</g>
<g>
	<g>
		<path fill="#00324C" d="M1.309,813.03c-0.99,1.879-1.721,3.914-2.088,6.055c-1.095-1.775-1.721-3.916-1.721-6.158
			c0-1.93,0.471-3.756,1.305-5.375c0.625,1.045,1.355,2.035,2.189,2.922c-0.103,0.312-0.207,0.629-0.207,0.99
			C0.787,812.04,0.994,812.614,1.309,813.03z M2.248,809.171c-0.939-0.99-1.722-2.141-2.399-3.34
			c0.887-1.199,2.033-2.295,3.339-3.078c1.409,0.572,2.766,1.25,3.965,2.137c-0.104,0.263-0.155,0.523-0.155,0.836
			c0,0.209,0.052,0.367,0.103,0.576c-1.096,0.834-2.086,1.722-3.025,2.711c-0.209-0.051-0.471-0.104-0.73-0.104
			C2.926,808.909,2.561,809.013,2.248,809.171z M4.856,823.989c-1.564-0.627-2.975-1.619-4.121-2.869
			c0.208-2.557,0.938-4.959,2.086-7.148c0.157,0.049,0.366,0.049,0.522,0.049c0.469,0,0.939-0.104,1.356-0.36
			c2.349,1.615,5.112,2.764,8.087,3.233C9.5,818.563,6.787,821.015,4.856,823.989z M8.248,803.536
			c-0.939-0.678-1.93-1.307-2.975-1.828c1.305-0.469,2.766-0.781,4.227-0.781c2.191,0,4.227,0.625,6,1.615
			c-1.461,0.262-2.869,0.732-4.226,1.307c-0.418-0.42-1.044-0.68-1.722-0.68C9.083,803.169,8.666,803.274,8.248,803.536z
			 M5.796,812.247c0.052-0.258,0.104-0.521,0.104-0.783c0-0.467-0.157-0.938-0.365-1.354c0.73-0.834,1.617-1.617,2.557-2.347
			c0.416,0.312,0.887,0.521,1.461,0.521c0.365,0,0.678-0.104,0.992-0.209c1.564,1.824,2.764,3.914,3.494,6.262
			c-0.26,0.209-0.521,0.521-0.679,0.832C10.596,814.753,8.039,813.763,5.796,812.247z M14.873,818.718
			c0.053,0.472,0.053,0.888,0.053,1.357c0,1.303-0.104,2.557-0.364,3.756c-1.514,0.732-3.235,1.096-5.062,1.096
			c-0.992,0-1.982-0.104-2.922-0.312c1.879-2.713,4.436-4.904,7.461-6.365C14.3,818.458,14.613,818.614,14.873,818.718z
			 M21.5,812.927c0,0.574-0.053,1.148-0.104,1.724c-1.098,0.312-2.192,0.52-3.393,0.625c-0.366-0.888-1.253-1.513-2.296-1.564
			c-0.836-2.557-2.141-4.852-3.861-6.887c0.157-0.312,0.262-0.73,0.262-1.099c0-0.104,0-0.207,0-0.262
			c1.722-0.729,3.547-1.199,5.478-1.406C19.986,806.249,21.5,809.433,21.5,812.927z M18.109,817.048
			c0.938-0.051,1.93-0.209,2.815-0.471c-0.782,2.453-2.297,4.594-4.33,6.055c0.104-0.834,0.156-1.67,0.156-2.557
			c0-0.471-0.052-0.99-0.052-1.461C17.379,818.353,17.848,817.78,18.109,817.048z"/>
	</g>
</g>
<path fill="#00324C" d="M19.723,879.185H0.277c-1.533,0-2.777,1.242-2.777,2.777v13.889c0,1.533,1.244,2.777,2.777,2.777h19.446
	c1.532,0,2.776-1.244,2.776-2.777v-13.889C22.5,880.427,21.256,879.185,19.723,879.185z M2.362,881.267
	c1.151,0,2.082,0.933,2.082,2.084c0,1.15-0.931,2.084-2.082,2.084c-1.151,0-2.085-0.934-2.085-2.084
	C0.277,882.198,1.211,881.267,2.362,881.267z M19.723,895.851H0.277v-8.334h19.446V895.851L19.723,895.851z M19.723,884.739H5.834
	v-2.777h13.889V884.739z"/>
<path fill="#FFFFFF" d="M20.5,945.005h-8v-8c0-0.553-0.447-1-1-1h-4c-0.553,0-1,0.447-1,1v8h-8c-0.553,0-1,0.447-1,1v4
	c0,0.553,0.447,1,1,1h8v8c0,0.553,0.447,1,1,1h4c0.553,0,1-0.447,1-1v-8h8c0.553,0,1-0.447,1-1v-4
	C21.5,945.452,21.053,945.005,20.5,945.005z"/>
<path fill="#FFFFFF" d="M10.98,1006.441l-11.113-11.115c-0.541-0.539-1.42-0.539-1.961,0c-0.541,0.543-0.541,1.422,0,1.963
	l10.133,10.133l-10.133,10.133c-0.541,0.541-0.541,1.42,0,1.963c0.541,0.539,1.42,0.539,1.961,0l11.113-11.115
	C11.521,1007.861,11.521,1006.984,10.98,1006.441z"/>
</svg>
