<?xml version="1.0" encoding="utf-8"?>
<!-- Generator: Adobe Illustrator 16.0.0, SVG Export Plug-In . SVG Version: 6.00 Build 0)  -->
<!DOCTYPE svg PUBLIC "-//W3C//DTD SVG 1.1//EN" "http://www.w3.org/Graphics/SVG/1.1/DTD/svg11.dtd">
<svg version="1.1" id="Layer_1" xmlns="http://www.w3.org/2000/svg" xmlns:xlink="http://www.w3.org/1999/xlink" x="0px" y="0px"
	 width="40px" height="376.375px" viewBox="0 0 40 376.375" enable-background="new 0 0 40 376.375" xml:space="preserve">
<g id="Layer_1_1_">
	<path opacity="0.1" fill="#FFFFFF" enable-background="new    " d="M16.155,41.014c0.004,0.158,0.009,0.314,0.009,0.475
		C16.165,46.371,12.456,52,5.659,52C3.571,52,1.632,51.385,0,50.342c0.288,0.035,0.58,0.053,0.883,0.053
		c1.728,0,3.319-0.594,4.583-1.582c-1.616-0.029-2.983-1.1-3.453-2.564c0.223,0.039,0.458,0.064,0.698,0.064
		c0.33,0,0.66-0.045,0.963-0.127c-1.688-0.342-2.951-1.836-2.951-3.625c0-0.018,0-0.033,0-0.047c0.49,0.273,1.062,0.441,1.675,0.465
		c-1-0.666-1.646-1.793-1.646-3.072c0-0.682,0.185-1.314,0.5-1.861c1.819,2.238,4.542,3.707,7.615,3.861
		c-0.069-0.27-0.099-0.551-0.099-0.842c0-2.037,1.654-3.693,3.692-3.693c1.058,0,2.021,0.447,2.697,1.164
		c0.839-0.166,1.63-0.471,2.341-0.895c-0.274,0.857-0.857,1.584-1.624,2.043c0.746-0.086,1.466-0.287,2.125-0.584
		C17.502,39.844,16.876,40.494,16.155,41.014z"/>
	<path opacity="0.1" fill="#FFFFFF" enable-background="new    " d="M4.08,90.275v0.002c-0.434,0.434-1.03,0.697-1.695,0.697
		c-0.655,0-1.253-0.264-1.686-0.699C0.27,89.842,0,89.254,0,88.594c0-0.656,0.27-1.248,0.7-1.682
		c0.433-0.434,1.03-0.699,1.686-0.699c0.665,0,1.261,0.266,1.695,0.699c0.436,0.434,0.698,1.025,0.703,1.682
		C4.778,89.254,4.516,89.842,4.08,90.275z M8.427,91v-0.008c-0.009-2.254-0.884-4.375-2.475-5.965
		c-1.587-1.59-3.712-2.471-5.951-2.471V79.12c3.275,0,6.238,1.334,8.389,3.484c2.147,2.154,3.479,5.121,3.479,8.395L8.427,91
		L8.427,91z M14.55,91c-0.006-8.029-6.527-14.559-14.543-14.566V73c4.957,0.006,9.455,2.02,12.708,5.277
		c3.267,3.264,5.277,7.758,5.281,12.723H14.55z"/>
	<path id="Facebook__x28_alt_x29__13_" opacity="0.1" fill="#FFFFFF" enable-background="new    " d="M2.88,18V9.729H0V6.08h2.88
		V4.658C2.88,2.207,4.72,0,6.984,0h3.095v3.646h-2.9c-0.323,0-0.699,0.393-0.699,0.98V6.08h3.6v3.648h-3.6V18H2.88z"/>
	<path fill="#00324C" d="M16.155,40.014c0.004,0.158,0.009,0.314,0.009,0.475C16.165,45.371,12.456,51,5.659,51
		C3.571,51,1.632,50.385,0,49.342c0.288,0.035,0.58,0.053,0.883,0.053c1.728,0,3.319-0.594,4.583-1.582
		c-1.616-0.029-2.983-1.1-3.453-2.564c0.223,0.039,0.458,0.064,0.698,0.064c0.33,0,0.66-0.045,0.963-0.127
		c-1.688-0.342-2.951-1.836-2.951-3.625c0-0.018,0-0.033,0-0.047c0.49,0.273,1.062,0.441,1.675,0.465
		c-1-0.666-1.646-1.793-1.646-3.072c0-0.682,0.185-1.314,0.5-1.861c1.819,2.238,4.542,3.707,7.615,3.861
		c-0.069-0.27-0.099-0.551-0.099-0.842c0-2.037,1.654-3.693,3.692-3.693c1.058,0,2.021,0.447,2.697,1.164
		c0.839-0.166,1.63-0.471,2.341-0.895c-0.274,0.857-0.857,1.584-1.624,2.043c0.746-0.086,1.466-0.287,2.125-0.584
		C17.502,38.844,16.876,39.494,16.155,40.014z"/>
	<path fill="#00324C" d="M4.08,89.275v0.002c-0.434,0.434-1.03,0.697-1.695,0.697c-0.655,0-1.253-0.264-1.686-0.699
		C0.27,88.842,0,88.254,0,87.594c0-0.656,0.27-1.248,0.7-1.682c0.433-0.434,1.03-0.699,1.686-0.699c0.665,0,1.261,0.266,1.695,0.699
		c0.436,0.434,0.698,1.025,0.703,1.682C4.778,88.254,4.516,88.842,4.08,89.275z M8.427,90v-0.008
		c-0.009-2.254-0.884-4.375-2.475-5.965c-1.587-1.59-3.712-2.471-5.951-2.471V78.12c3.275,0,6.238,1.334,8.389,3.484
		c2.147,2.154,3.479,5.121,3.479,8.395L8.427,90L8.427,90z M14.55,90c-0.006-8.029-6.527-14.559-14.543-14.566V72
		c4.957,0.006,9.455,2.02,12.708,5.277c3.267,3.264,5.277,7.758,5.281,12.723H14.55z"/>
	<path id="Facebook__x28_alt_x29__1_" fill="#00324C" d="M2.88,18V9.729H0V6.08h2.88V4.658C2.88,2.207,4.72,0,6.984,0h3.095v3.646
		h-2.9c-0.323,0-0.699,0.393-0.699,0.98V6.08h3.6v3.648h-3.6V18H2.88z"/>
</g>
<g id="guides" display="none">
</g>
<g>
	<path opacity="0.1" fill="#FFFFFF" enable-background="new    " d="M13,281.504v10.464c0,0.335-0.628,0.671-1,0.671
		s-1-0.187-1-0.671c0,0,0-9.282,0-9.468s0-0.225-0.224-0.335c-0.224-0.112-7.123-4.022-7.123-4.022
		c-0.112-0.037-0.596-0.186-1.267,0.188c-0.633,0.297-0.715,0.547-0.789,0.694l7.068,4.117C8.889,283.254,9,283.479,9,283.664v10.24
		c0,0.224-0.111,0.447-0.334,0.521C8.554,294.5,8.441,294.5,8.367,294.5c-0.148,0-0.26,0-0.372-0.074
		c-0.187-0.148-7.026-4.543-7.511-4.804C0.261,289.473,0,289.213,0,288.989v-9.757c0-0.187,0-0.521,0.26-0.969
		c0.671-1.043,2.909-2.197,4.026-1.602l8.379,4.318C12.889,281.094,13,281.281,13,281.504z"/>
	<path opacity="0.1" fill="#FFFFFF" enable-background="new    " d="M6,156c-3.314,0-6,2.687-6,6c0,6.751,6,12,6,12s6-5.249,6-12
		C12,158.687,9.314,156,6,156z M6,165.375c-1.864,0-3.375-1.511-3.375-3.375c0-1.863,1.511-3.375,3.375-3.375
		s3.375,1.512,3.375,3.375C9.375,163.864,7.864,165.375,6,165.375z"/>
	<path opacity="0.1" fill="#FFFFFF" enable-background="new    " d="M16,318.518H2c-1.104,0-2,0.896-2,2v10c0,1.104,0.896,2,2,2h14
		c1.104,0,2-0.896,2-2v-10C18,319.412,17.104,318.518,16,318.518z M3.501,320.018c0.829,0,1.499,0.671,1.499,1.5
		c0,0.828-0.67,1.5-1.499,1.5S2,322.346,2,321.518C2,320.688,2.672,320.018,3.501,320.018z M16,330.518H2v-6h14V330.518z
		 M16,322.518H6v-2h10V322.518z"/>
	<g opacity="0.1">
		<path fill="#FFFFFF" d="M2.857,245.078c-0.744,1.408-1.291,2.936-1.566,4.541C0.47,248.288,0,246.684,0,245
			c0-1.445,0.354-2.816,0.979-4.031c0.469,0.783,1.018,1.526,1.643,2.192c-0.077,0.233-0.156,0.471-0.156,0.741
			C2.465,244.335,2.621,244.766,2.857,245.078z M3.562,242.184c-0.704-0.742-1.292-1.604-1.8-2.506
			c0.665-0.898,1.524-1.721,2.504-2.309c1.057,0.43,2.074,0.938,2.974,1.604c-0.078,0.196-0.116,0.394-0.116,0.627
			c0,0.156,0.038,0.275,0.077,0.433c-0.822,0.625-1.565,1.291-2.271,2.034c-0.155-0.039-0.352-0.08-0.547-0.08
			C4.07,241.986,3.795,242.064,3.562,242.184z M5.518,253.297c-1.174-0.47-2.231-1.214-3.091-2.15
			c0.155-1.918,0.704-3.72,1.564-5.361c0.118,0.037,0.274,0.037,0.392,0.037c0.352,0,0.704-0.078,1.018-0.271
			c1.761,1.213,3.834,2.073,6.064,2.426C9,249.229,6.965,251.066,5.518,253.297z M8.061,237.957c-0.703-0.508-1.447-0.98-2.23-1.37
			C6.809,236.234,7.904,236,9,236c1.645,0,3.17,0.468,4.5,1.212c-1.096,0.196-2.152,0.55-3.169,0.979
			c-0.313-0.314-0.783-0.51-1.292-0.51C8.688,237.684,8.374,237.762,8.061,237.957z M6.222,244.491
			c0.039-0.194,0.078-0.392,0.078-0.589c0-0.35-0.117-0.702-0.273-1.016c0.548-0.625,1.213-1.214,1.917-1.761
			c0.312,0.233,0.666,0.392,1.096,0.392c0.274,0,0.509-0.078,0.744-0.156c1.174,1.369,2.072,2.936,2.621,4.695
			c-0.195,0.157-0.392,0.393-0.509,0.625C9.822,246.37,7.904,245.627,6.222,244.491z M13.03,249.344
			c0.04,0.354,0.04,0.665,0.04,1.02c0,0.977-0.078,1.916-0.274,2.816C11.661,253.729,10.369,254,9,254
			c-0.744,0-1.487-0.077-2.191-0.234c1.408-2.033,3.326-3.678,5.596-4.772C12.6,249.148,12.835,249.266,13.03,249.344z M18,245
			c0,0.432-0.039,0.861-0.078,1.292c-0.822,0.233-1.644,0.392-2.543,0.47c-0.274-0.664-0.939-1.135-1.723-1.174
			c-0.626-1.918-1.604-3.639-2.896-5.166c0.118-0.234,0.196-0.547,0.196-0.822c0-0.076,0-0.156,0-0.195
			c1.291-0.547,2.66-0.899,4.108-1.057C16.865,239.992,18,242.379,18,245z M15.457,248.092c0.703-0.039,1.447-0.156,2.113-0.354
			c-0.588,1.84-1.723,3.445-3.248,4.541c0.078-0.627,0.117-1.252,0.117-1.918c0-0.354-0.039-0.742-0.039-1.096
			C14.909,249.068,15.261,248.641,15.457,248.092z"/>
	</g>
	<g opacity="0.1">
		<path fill="#FFFFFF" d="M0,203v6c0,1.656,1.344,3,3,3v-12C1.344,200,0,201.344,0,203z"/>
		<path fill="#FFFFFF" d="M15,200v12c1.656,0,3-1.344,3-3v-6C18,201.344,16.656,200,15,200z"/>
		<path fill="#FFFFFF" d="M13,199c-0.639-1.725-2.343-3-4-3s-3.361,1.275-4,3v1H4v12h10v-12h-1V199z M7,200v-1
			c0.602-0.74,1.094-1.2,2-1.2s1.398,0.46,2,1.2v1H7z"/>
	</g>
	<path opacity="0.1" fill="#FFFFFF" enable-background="new    " d="M15,118H3c-1.656,0-3,1.344-3,3v6c0,1.656,1.344,3,3,3h5.75
		l5.25,4v-4h1c1.656,0,3-1.344,3-3v-6C18,119.344,16.656,118,15,118z"/>
	<path fill="#00324C" d="M13,280.504v10.464c0,0.335-0.628,0.671-1,0.671s-1-0.187-1-0.671c0,0,0-9.282,0-9.468s0-0.225-0.224-0.335
		c-0.224-0.112-7.123-4.022-7.123-4.022c-0.112-0.037-0.596-0.186-1.267,0.188c-0.633,0.297-0.715,0.547-0.789,0.694l7.068,4.117
		C8.889,282.254,9,282.479,9,282.664v10.24c0,0.224-0.111,0.447-0.334,0.521C8.554,293.5,8.441,293.5,8.367,293.5
		c-0.148,0-0.26,0-0.372-0.074c-0.187-0.148-7.026-4.543-7.511-4.804C0.261,288.473,0,288.213,0,287.989v-9.757
		c0-0.187,0-0.521,0.26-0.969c0.671-1.043,2.909-2.197,4.026-1.602l8.379,4.318C12.889,280.094,13,280.281,13,280.504z"/>
	<path fill="#00324C" d="M6,155c-3.314,0-6,2.687-6,6c0,6.751,6,12,6,12s6-5.249,6-12C12,157.687,9.314,155,6,155z M6,164.375
		c-1.864,0-3.375-1.511-3.375-3.375c0-1.863,1.511-3.375,3.375-3.375s3.375,1.512,3.375,3.375
		C9.375,162.864,7.864,164.375,6,164.375z"/>
	<path fill="#00324C" d="M16,317.518H2c-1.104,0-2,0.896-2,2v10c0,1.104,0.896,2,2,2h14c1.104,0,2-0.896,2-2v-10
		C18,318.412,17.104,317.518,16,317.518z M3.501,319.018c0.829,0,1.499,0.671,1.499,1.5c0,0.828-0.67,1.5-1.499,1.5
		S2,321.346,2,320.518C2,319.688,2.672,319.018,3.501,319.018z M16,329.518H2v-6h14V329.518z M16,321.518H6v-2h10V321.518z"/>
	<path fill="#00324C" d="M15,117H3c-1.656,0-3,1.344-3,3v6c0,1.656,1.344,3,3,3h5.75l5.25,4v-4h1c1.656,0,3-1.344,3-3v-6
		C18,118.344,16.656,117,15,117z"/>
	<g>
		<path fill="#00324C" d="M2.857,244.078c-0.744,1.408-1.291,2.936-1.566,4.541C0.47,247.288,0,245.684,0,244
			c0-1.445,0.354-2.816,0.979-4.031c0.469,0.783,1.018,1.526,1.643,2.192c-0.077,0.233-0.156,0.471-0.156,0.741
			C2.465,243.335,2.621,243.766,2.857,244.078z M3.562,241.184c-0.704-0.742-1.292-1.604-1.8-2.506
			c0.665-0.898,1.524-1.721,2.504-2.309c1.057,0.43,2.074,0.938,2.974,1.604c-0.078,0.196-0.116,0.394-0.116,0.627
			c0,0.156,0.038,0.275,0.077,0.433c-0.822,0.625-1.565,1.291-2.271,2.034c-0.155-0.039-0.352-0.08-0.547-0.08
			C4.07,240.986,3.795,241.064,3.562,241.184z M5.518,252.297c-1.174-0.47-2.231-1.214-3.091-2.15
			c0.155-1.918,0.704-3.72,1.564-5.361c0.118,0.037,0.274,0.037,0.392,0.037c0.352,0,0.704-0.078,1.018-0.271
			c1.761,1.213,3.834,2.073,6.064,2.426C9,248.229,6.965,250.066,5.518,252.297z M8.061,236.957c-0.703-0.508-1.447-0.98-2.23-1.37
			C6.809,235.234,7.904,235,9,235c1.645,0,3.17,0.468,4.5,1.212c-1.096,0.196-2.152,0.55-3.169,0.979
			c-0.313-0.314-0.783-0.51-1.292-0.51C8.688,236.684,8.374,236.762,8.061,236.957z M6.222,243.491
			c0.039-0.194,0.078-0.392,0.078-0.589c0-0.35-0.117-0.702-0.273-1.016c0.548-0.625,1.213-1.214,1.917-1.761
			c0.312,0.233,0.666,0.392,1.096,0.392c0.274,0,0.509-0.078,0.744-0.156c1.174,1.369,2.072,2.936,2.621,4.695
			c-0.195,0.157-0.392,0.393-0.509,0.625C9.822,245.37,7.904,244.627,6.222,243.491z M13.03,248.344
			c0.04,0.354,0.04,0.665,0.04,1.02c0,0.977-0.078,1.916-0.274,2.816C11.661,252.729,10.369,253,9,253
			c-0.744,0-1.487-0.077-2.191-0.234c1.408-2.033,3.326-3.678,5.596-4.772C12.6,248.148,12.835,248.266,13.03,248.344z M18,244
			c0,0.432-0.039,0.861-0.078,1.292c-0.822,0.233-1.644,0.392-2.543,0.47c-0.274-0.664-0.939-1.135-1.723-1.174
			c-0.626-1.918-1.604-3.639-2.896-5.166c0.118-0.234,0.196-0.547,0.196-0.822c0-0.076,0-0.156,0-0.195
			c1.291-0.547,2.66-0.899,4.108-1.057C16.865,238.992,18,241.379,18,244z M15.457,247.092c0.703-0.039,1.447-0.156,2.113-0.354
			c-0.588,1.84-1.723,3.445-3.248,4.541c0.078-0.627,0.117-1.252,0.117-1.918c0-0.354-0.039-0.742-0.039-1.096
			C14.909,248.068,15.261,247.641,15.457,247.092z"/>
	</g>
	<g>
		<path fill="#00324C" d="M0,202v6c0,1.656,1.344,3,3,3v-12C1.344,199,0,200.344,0,202z"/>
		<path fill="#00324C" d="M15,199v12c1.656,0,3-1.344,3-3v-6C18,200.344,16.656,199,15,199z"/>
		<path fill="#00324C" d="M13,198c-0.639-1.725-2.343-3-4-3s-3.361,1.275-4,3v1H4v12h10v-12h-1V198z M7,199v-1
			c0.602-0.74,1.094-1.2,2-1.2s1.398,0.46,2,1.2v1H7z"/>
	</g>
</g>
<g>
	<g>
		<g>
			<path fill="#FFFFFF" d="M15.82,374.768l-0.758,0.76c-0.329,0.297-0.823,0.297-1.12,0l-3.132-3.129
				c-0.758,0.43-1.646,0.691-2.57,0.691c-2.802,0-5.24-2.438-5.24-5.236c0-2.832,2.273-5.104,5.075-5.104
				c2.835,0,5.273,2.438,5.273,5.236c0,0.986-0.263,1.875-0.758,2.666l3.132,3.096C16.019,374.078,16.117,374.441,15.82,374.768z
				 M8.24,371.543c1.944,0,3.527-1.582,3.527-3.557c0-1.943-1.747-3.656-3.692-3.656c-1.944,0-3.526,1.58-3.526,3.523
				S6.296,371.543,8.24,371.543z"/>
		</g>
	</g>
</g>
</svg>
